# AST/ASF file generated using VICON BodyLanguage
# -----------------------------------------------
:version 1.10
:name VICON
:units
  mass 1.0
  length 0.45
  angle deg
:documentation
   .ast/.asf automatically generated from VICON data using
   VICON BodyBuilder and BodyLanguage model FoxedUp or BRILLIANT.MOD
:root
   order TX TY TZ RX RY RZ
   axis XYZ
   position 0 0 0  
   orientation 0 0 0 
:bonedata
  begin
     id 1 
     name lhipjoint
     direction 0.671379 -0.66392 0.329334 
     length 2.38647 
     axis 0 0 0  XYZ
  end
  begin
     id 2 
     name lfemur
     direction 0.34202 -0.939693 0  
     length 6.48179  
     axis 0 0 20  XYZ
    dof rx ry rz
    limits (-160.0 20.0)
           (-70.0 70.0)
           (-60.0 70.0)
  end
  begin
     id 3 
     name ltibia
     direction 0.34202 -0.939693 0   
     length 6.86524   
     axis 0 0 20   XYZ
    dof rx
    limits (-10.0 170.0)
  end
  begin
     id 4 
     name lfoot
     direction 0.204886 -0.562919 0.800715   
     length 1.73031   
     axis -90 7.62852e-016 20   XYZ
    dof rx rz
    limits (-45.0 90.0)
           (-70.0 20.0)
  end
  begin
     id 5 
     name ltoes
     direction 1.53548e-011 -4.21841e-011 1   
     length 0.828161   
     axis -90 7.62852e-016 20   XYZ
    dof rx
    limits (-90.0 20.0)
  end
  begin
     id 6 
     name rhipjoint
     direction -0.662732 -0.670855 0.332775   
     length 2.3618  
     axis 0 0 0  XYZ 
  end
  begin
     id 7 
     name rfemur
     direction -0.34202 -0.939693 0   
     length 6.3025   
     axis 0 0 -20   XYZ
    dof rx ry rz
    limits (-160.0 20.0)
           (-70.0 70.0)
           (-70.0 60.0)
  end
  begin
     id 8 
     name rtibia
     direction -0.34202 -0.939693 0   
     length 6.8732   
     axis 0 0 -20   XYZ
    dof rx
    limits (-10.0 170.0)
 end
 begin
     id 9 
     name rfoot
     direction -0.173856 -0.477665 0.861168   
     length 1.54784  
     axis -90 -7.62852e-016 -20   XYZ
    dof rx rz
    limits (-45.0 90.0)
           (-20.0 70.0)
  end
  begin
     id 10 
     name rtoes
     direction -1.53562e-011 -4.21802e-011 1   
     length 0.759618   
     axis -90 -7.62852e-016 -20   XYZ
    dof rx
    limits (-90.0 20.0)
  end
  begin
     id 11 
     name lowerback
     direction -0.0278357 0.999497 -0.0151789   
     length 1.97203   
     axis 0 0 0   XYZ
    dof rx ry rz
    limits (-20.0 45.0)
           (-30.0 30.0)
           (-30.0 30.0)
  end
  begin
     id 12 
     name upperback
     direction -0.00360622 0.997542 0.0699804   
     length 1.94709   
     axis 0 0 0   XYZ
    dof rx ry rz
    limits (-20.0 45.0)
           (-30.0 30.0)
           (-30.0 30.0)
  end
  begin
     id 13 
     name thorax
     direction 0.00907706 0.997048 0.0762461   
     length 1.95722   
     axis 0 0 0   XYZ
    dof rx ry rz
    limits (-20.0 45.0)
           (-30.0 30.0)
           (-30.0 30.0)
  end
  begin
     id 14 
     name lowerneck
     direction -0.0481835 0.99872 -0.0153927   
     length 1.63078   
     axis 0 0 0   XYZ
    dof rx ry rz
    limits (-20.0 45.0)
           (-30.0 30.0)
           (-30.0 30.0)
  end
  begin
     id 15 
     name upperneck
     direction 0.0859716 0.979226 -0.183644   
     length 1.62591   
     axis 0 0 0   XYZ
    dof rx ry rz
    limits (-20.0 45.0)
           (-30.0 30.0)
           (-30.0 30.0)
  end
  begin
     id 16
     name head
     direction 0.0324821 0.997629 -0.0606773  
     length 1.64811  
     axis 0 0 0   XYZ
    dof rx ry rz
    limits (-20.0 45.0)
           (-30.0 30.0)
           (-30.0 30.0)
  end
  begin
     id 17 
     name lclavicle
     direction 0.939609 0.311019 0.142835  
     length 3.70647  
     axis 0 0 0   XYZ
    dof ry rz
    limits (-20.0 10.0)
           (0.0 20.0)
  end
  begin
     id 18 
     name lhumerus
     direction 1 -4.48963e-011 -1.59838e-027   
     length 4.59207   
     axis 180 -30 -90   XYZ
    dof rx ry rz
    limits (-60.0 90.0)
           (-90.0 90.0)
           (-90.0 90.0)
  end
  begin
     id 19
     name lradius
     direction 1 -4.48957e-011 -1.3483e-026   
     length 2.98109   
     axis 180 -30 -90   XYZ
    dof rx
    limits (-10.0 170.0)
  end
  begin
     id 20
     name lwrist
     direction 1 -4.48954e-011 -3.11579e-026   
     length 1.49055   
     axis 2.00652e-014 90 90   XYZ
    dof ry
    limits (-180.0 0.0)
 end
  begin
     id 21 
     name lhand
     direction 1 -4.4911e-011 -6.23158e-026   
     length 0.480203   
     axis 3.97628e-014 90 90   XYZ
    dof rx rz
    limits (-90.0 90.0)
           (-45.0 45.0)
  end
  begin
     id 22 
     name lfingers
     direction 1 -4.48893e-011 -1.24632e-025   
     length 0.387152   
     axis 7.95256e-014 90 90   XYZ
    dof rx
    limits (0.0 90.0)
  end
  begin
     id 23
     name lthumb
     direction 0.707107 -6.35013e-011 0.707107   
     length 0.555875   
     axis -90 45 2.85299e-015   XYZ
    dof rx rz
    limits (-45.0 45.0)
           (-45.0 45.0)
  end
  begin
     id 24 
     name rclavicle
     direction -0.950396 0.30392 0.0661859   
     length 3.70894  
     axis 0 0 0   XYZ 
    dof ry rz
    limits (-10.0 20.0)
           (-20.0 0.0)
  end
  begin
     id 25 
     name rhumerus
     direction -1 -4.48957e-011 -2.96677e-027  
     length 4.76508   
     axis 180 30 90   XYZ
    dof rx ry rz
    limits (-90.0 60.0)
           (-90.0 90.0)
           (-90.0 90.0)
  end
  begin
     id 26 
     name rradius
     direction -1 -4.48974e-011 -1.44501e-026   
     length 2.78902   
     axis 180 30 90   XYZ
    dof rx
    limits (-10.0 170.0)
  end
  begin
     id 27 
     name rwrist
     direction -1 -4.48978e-011 -3.11579e-026   
     length 1.39451   
     axis 2.00652e-014 -90 -90   XYZ
    dof ry
    limits (-180.0 0.0)
  end
  begin
     id 28
     name rhand
     direction -1 -4.48956e-011 -6.23158e-026   
     length 0.721303   
     axis 3.97628e-014 -90 -90   XYZ
    dof rx rz
    limits (-90.0 90.0)
           (-45.0 45.0)
  end
  begin
     id 29
     name rfingers
     direction -1 -4.4899e-011 -1.24632e-025   
     length 0.581533   
     axis 7.95256e-014 -90 -90   XYZ
    dof rx
    limits (0.0 90.0)
  end
  begin
     id 30
     name rthumb
     direction -0.707107 -6.34911e-011 0.707107   
     length 0.834968   
     axis -90 -45 -2.85299e-015   XYZ
    dof rx rz
    limits (-45.0 45.0)
           (-45.0 45.0)
  end
:hierarchy
  begin
    root lhipjoint rhipjoint lowerback
    lhipjoint lfemur
    lfemur ltibia
    ltibia lfoot
    lfoot ltoes
    rhipjoint rfemur
    rfemur rtibia
    rtibia rfoot
    rfoot rtoes
    lowerback upperback
    upperback thorax
    thorax lowerneck lclavicle rclavicle
    lowerneck upperneck
    upperneck head
    lclavicle lhumerus
    lhumerus lradius
    lradius lwrist
    lwrist lhand lthumb
    lhand lfingers
    rclavicle rhumerus
    rhumerus rradius
    rradius rwrist
    rwrist rhand rthumb
    rhand rfingers
  end

#!OML:ASF I:\salsa\salsa 7_09\Patient 1\Session 1\dancerfemale.ASF
:FULLY-SPECIFIED
:DEGREES
1
root 24.849 15.8318 0.165894 -37.1337 -82.6159 42.8206
lowerback -3.12612 0.978813 -10.2248
upperback -6.75957 1.09782 0.258199
thorax -5.60677 1.01194 5.9891
lowerneck 0.390621 -5.62169 -10.3759
upperneck 7.86302 -8.17109 9.47542
head 3.07707 -4.14149 4.30404
rclavicle 2.01021e-014 -1.96797e-014
rhumerus -48.9958 -30.6321 -61.1131
rradius 22.6099
rwrist 14.3121
rhand 1.9861 52.0718
rfingers 7.12502
rthumb 27.4913 24.0585
lclavicle 2.01021e-014 -1.96797e-014
lhumerus -46.2423 21.4427 85.5353
lradius 49.3105
lwrist -32.3457
lhand -12.7713 41.5027
lfingers 7.12502
lthumb 13.3136 71.0574
rfemur -17.1209 -0.68675 14.4155
rtibia 34.101
rfoot -20.8594 -13.6608
rtoes 30.7117
lfemur -16.3409 -1.80038 -29.6601
ltibia 32.8882
lfoot -24.8984 -2.72238
ltoes -19.122
2
root 24.8524 15.8267 0.175523 -33.9375 -82.8214 39.5004
lowerback -2.92095 0.972375 -9.70726
upperback -6.77163 1.07716 0.376889
thorax -5.71136 0.985594 5.8215
lowerneck -0.135484 -5.52784 -13.1055
upperneck 8.74952 -8.29058 12.5069
head 3.66979 -4.18683 5.66921
rclavicle 5.41688e-015 -5.56597e-015
rhumerus -50.0635 -32.1496 -59.1004
rradius 22.2097
rwrist 15.6374
rhand 1.71568 51.9238
rfingers 7.12502
rthumb 27.2326 23.8697
lclavicle 5.41688e-015 -5.56597e-015
lhumerus -45.3289 15.8972 91.288
lradius 48.5066
lwrist -10.1361
lhand -14.0036 53.0794
lfingers 7.12502
lthumb 12.1256 82.708
rfemur -16.9025 -0.414633 14.9167
rtibia 33.8709
rfoot -22.0929 -14.3272
rtoes 26.0347
lfemur -16.456 -2.16341 -29.1725
ltibia 33.3528
lfoot -25.0953 -2.52324
ltoes -18.4675
3
root 24.8511 15.8256 0.183683 -31.5402 -83.0521 36.8867
lowerback -2.69199 0.963673 -9.20814
upperback -6.74981 1.05447 0.458916
thorax -5.79319 0.955508 5.62508
lowerneck -0.135452 -5.48253 -13.2173
upperneck 8.87032 -8.26174 12.7181
head 3.71417 -4.17142 5.75679
rclavicle 1.86361e-015 7.95139e-015
rhumerus -51.0515 -33.4117 -57.3665
rradius 21.931
rwrist 16.5643
rhand 1.73257 51.897
rfingers 7.12502
rthumb 27.2488 23.8454
lclavicle 1.86361e-015 7.95139e-015
lhumerus -45.1686 15.1187 92.0632
lradius 48.3665
lwrist -6.90626
lhand -19.6344 55.6754
lfingers 7.12502
lthumb 6.69274 85.5496
rfemur -16.5008 -0.167755 15.3618
rtibia 33.503
rfoot -23.1933 -14.9154
rtoes 20.1328
lfemur -16.3839 -2.21297 -28.7499
ltibia 33.6804
lfoot -25.3044 -2.49497
ltoes -18.2777
4
root 24.8473 15.8276 0.193484 -29.8975 -83.397 35.0499
lowerback -2.55091 0.975761 -8.68571
upperback -6.71106 1.07065 0.530716
thorax -5.81249 0.939308 5.40476
lowerneck -0.146898 -5.42546 -13.2948
upperneck 8.98043 -8.20881 12.868
head 3.75022 -4.14421 5.82058
rclavicle -4.42296e-015 4.17448e-015
rhumerus -51.8579 -34.3433 -56.0787
rradius 21.816
rwrist 16.8924
rhand 1.93779 51.8419
rfingers 7.12502
rthumb 27.4451 23.8212
lclavicle -4.42296e-015 4.17448e-015
lhumerus -44.9199 15.5349 91.7207
lradius 47.6276
lwrist -7.3291
lhand -18.4812 51.2341
lfingers 7.12502
lthumb 7.80589 81.07
rfemur -16.0986 0.0983653 15.7743
rtibia 33.0582
rfoot -24.193 -15.4241
rtoes 13.251
lfemur -16.358 -2.08152 -28.3586
ltibia 34.1037
lfoot -25.6529 -2.48111
ltoes -18.1376
5
root 24.8471 15.8337 0.205356 -28.4483 -83.7191 33.4819
lowerback -2.44365 0.982208 -8.23478
upperback -6.68223 1.08253 0.621454
thorax -5.82683 0.925146 5.24521
lowerneck -0.259083 -5.39547 -13.3041
upperneck 9.15049 -8.17008 12.8528
head 3.81414 -4.12269 5.81626
rclavicle -1.86858e-014 5.1684e-015
rhumerus -52.4601 -34.9951 -55.187
rradius 21.7889
rwrist 16.9489
rhand 1.86691 51.6965
rfingers 7.12502
rthumb 27.3773 23.6652
lclavicle -1.86858e-014 5.1684e-015
lhumerus -44.7761 15.8849 91.457
lradius 46.9901
lwrist -7.78277
lhand -19.1384 51.5593
lfingers 7.12502
lthumb 7.17159 81.4178
rfemur -15.7918 0.317458 16.1127
rtibia 32.6171
rfoot -25.201 -15.8745
rtoes 5.89488
lfemur -16.4257 -1.90223 -28.0577
ltibia 34.4601
lfoot -25.8901 -2.35528
ltoes -19.0302
6
root 24.8504 15.8419 0.223236 -24.1704 -84.1978 28.9191
lowerback -2.09343 1.03142 -7.27894
upperback -6.63992 1.14454 0.738422
thorax -5.95247 0.914831 4.82332
lowerneck -0.439846 -5.41268 -13.1212
upperneck 9.3845 -8.1759 12.6109
head 3.89858 -4.12157 5.70254
rclavicle -8.94531e-015 1.13307e-014
rhumerus -52.9375 -35.4521 -54.6849
rradius 21.8289
rwrist 16.855
rhand 1.71213 51.5713
rfingers 7.12502
rthumb 27.2292 23.5166
lclavicle -8.94531e-015 1.13307e-014
lhumerus -44.7822 16.0285 91.1916
lradius 46.4855
lwrist -8.21981
lhand -20.8151 55.6318
lfingers 7.12502
lthumb 5.55283 85.5391
rfemur -15.3357 0.527546 16.8112
rtibia 32.2197
rfoot -27.6788 -16.6211
rtoes -9.32573
lfemur -16.3731 -1.63728 -27.4335
ltibia 34.7789
lfoot -26.0484 -2.10539
ltoes -21.4081
7
root 24.8487 15.8448 0.226209 -25.1037 -84.3538 29.8243
lowerback -2.03014 1.01808 -7.19673
upperback -6.63525 1.12158 0.700939
thorax -5.97586 0.898488 4.73732
lowerneck -0.614706 -5.41608 -12.8924
upperneck 9.56715 -8.15764 12.3499
head 3.96101 -4.10784 5.57707
rclavicle -4.72114e-015 -1.35174e-014
rhumerus -53.1871 -35.6282 -54.6512
rradius 21.9508
rwrist 16.4797
rhand 1.68208 51.5877
rfingers 7.12502
rthumb 27.2005 23.5285
lclavicle -4.72114e-015 -1.35174e-014
lhumerus -44.8071 16.3118 90.7075
lradius 45.7651
lwrist -8.93188
lhand -21.6225 57.5855
lfingers 7.12502
lthumb 4.77331 87.5118
rfemur -15.1897 0.676666 16.7841
rtibia 31.9616
rfoot -27.5917 -16.5541
rtoes -9.0821
lfemur -16.4592 -1.48062 -27.4802
ltibia 34.9936
lfoot -26.1645 -1.94795
ltoes -22.7472
8
root 24.8484 15.8434 0.229275 -26.8345 -84.4687 31.5679
lowerback -2.05126 0.987781 -7.20829
upperback -6.56852 1.08425 0.642575
thorax -5.88535 0.874298 4.68426
lowerneck -0.888826 -5.40762 -12.6222
upperneck 9.68348 -8.10762 12.11
head 4.01558 -4.07215 5.45096
rclavicle -1.60022e-014 -1.39149e-015
rhumerus -53.1074 -35.7002 -55.0377
rradius 22.141
rwrist 15.983
rhand 1.70186 51.6742
rfingers 7.12502
rthumb 27.2194 23.618
lclavicle -1.60022e-014 -1.39149e-015
lhumerus -44.7088 16.7439 90.1108
lradius 44.8027
lwrist -9.63596
lhand -21.6585 58.0504
lfingers 7.12502
lthumb 4.73855 87.9774
rfemur -15.1507 0.735946 16.6505
rtibia 31.796
rfoot -27.4518 -16.4363
rtoes -9.06692
lfemur -16.5238 -1.45046 -27.5986
ltibia 35.141
lfoot -26.2831 -1.82641
ltoes -22.9196
9
root 24.8481 15.8435 0.231631 -27.7071 -84.6333 32.4907
lowerback -2.10915 0.94548 -7.17487
upperback -6.49257 1.03818 0.648766
thorax -5.76274 0.844315 4.67489
lowerneck -1.28885 -5.39234 -12.3857
upperneck 9.88833 -8.03906 11.8531
head 4.11674 -4.02497 5.3228
rclavicle -1.38652e-014 1.03368e-014
rhumerus -52.7948 -35.6476 -55.703
rradius 22.3852
rwrist 15.4137
rhand 1.81344 51.6534
rfingers 7.12502
rthumb 27.3262 23.6139
lclavicle -1.38652e-014 1.03368e-014
lhumerus -44.6074 17.239 89.5347
lradius 43.8516
lwrist -10.3051
lhand -21.3129 58.9141
lfingers 7.12502
lthumb 5.07222 88.8334
rfemur -15.2532 0.748612 16.631
rtibia 31.8047
rfoot -27.3743 -16.2598
rtoes -8.74126
lfemur -16.5794 -1.41893 -27.5994
ltibia 35.1519
lfoot -26.317 -1.69814
ltoes -23.0535
